# xmcd
#
# Track frame offsets:
#	183
#	14318
#	27873
#	41418
#	59345
#	72658
#	96703
#	111933
#	123005
#	134233
#	146865
#	159033
#	174630
#	188408
# Disc length: 2611 seconds
# Revision: 1
# Processed by: cddbd v1.5.1PL2 Copyright (c) Steve Scherf et al.
#
# Submitted via: libkcddb 0.31
#
DISCID=c80a310e
DTITLE=Che and Ray - Boogie-Race
DYEAR=1986
DGENRE=Blues
TTITLE0=Telephone Boogie
TTITLE1=Burning The Boogie
TTITLE2=Walking
TTITLE3=Aliaso
TTITLE4=Super Starter
TTITLE5=All The Blues
TTITLE6=Lonesome
TTITLE7=Real Boogie
TTITLE8=Boogie-Explosion
TTITLE9=Get The Boogie
TTITLE10=Ray's Rag
TTITLE11=Aerobic Boogie
TTITLE12=Boogie Brushes
TTITLE13=Funky Stopper
EXTD=10 Jahre unterwegs
EXTT0=
EXTT1=
EXTT2=
EXTT3=
EXTT4=
EXTT5=
EXTT6=
EXTT7=
EXTT8=
EXTT9=
EXTT10=
EXTT11=
EXTT12=
EXTT13=
PLAYORDER=
